# xmcd
#
# Track frame offsets:
#	150
#	18867
#	42837
#	65072
#
# Disc length: 1056 seconds
#
# Revision: 0
# Processed by: cddbd v1.4PL0 Copyright (c) Steve Scherf et al.
# Submitted via: dBpowerAMP V4.0
#
DISCID=2c041e04
DTITLE=Keb Mo - The Door (Disk 2)
DYEAR=1900
DGENRE=Blues
TTITLE0=Every Morning
TTITLE1=City Boy
TTITLE2=Infinite Eyes
TTITLE3=Jingle Bell Jamboree
EXTD=
EXTT0=
EXTT1=
EXTT2=
EXTT3=
PLAYORDER=
